<?xml version="1.0" encoding="utf-8" standalone="no"?>
<!DOCTYPE svg PUBLIC "-//W3C//DTD SVG 1.1//EN"
  "http://www.w3.org/Graphics/SVG/1.1/DTD/svg11.dtd">
<!-- Created with matplotlib (http://matplotlib.org/) -->
<svg height="72pt" version="1.1" viewBox="0 0 144 72" width="144pt" xmlns="http://www.w3.org/2000/svg" xmlns:xlink="http://www.w3.org/1999/xlink">
 <defs>
  <style type="text/css">
*{stroke-linecap:butt;stroke-linejoin:round;}
  </style>
 </defs>
 <g id="figure_1">
  <g id="patch_1">
   <path d="
M0 72
L144 72
L144 0
L0 0
z
" style="fill:#ffffff;"/>
  </g>
  <g id="axes_1">
   <g id="patch_2">
    <path d="
M0 72
L144 72
L144 0
L0 0
z
" style="fill:#e5e5e5;"/>
   </g>
   <g id="matplotlib.axis_1"/>
   <g id="matplotlib.axis_2"/>
   <g id="line2d_1">
    <path clip-path="url(#p5d99cb97b2)" d="
M0 71.1
L24.48 71.1
L24.84 55.8
L25.2 57.6
L25.56 60.3
L25.92 62.1
L26.64 62.1
L27 57.6
L27.36 60.3
L27.72 60.3
L28.08 58.5
L28.44 59.4
L28.8 56.7
L29.16 61.2
L29.52 62.1
L29.88 59.4
L30.24 64.8
L30.6 65.7
L30.96 65.7
L31.32 64.8
L31.68 64.8
L32.04 63.9
L32.4 62.1
L32.76 59.4
L33.48 59.4
L33.84 58.5
L34.2 56.7
L34.56 55.8
L35.28 52.2
L35.64 53.1
L36 51.3
L36.36 51.3
L37.08 53.1
L37.44 49.5
L37.8 51.3
L38.16 48.6
L38.52 48.6
L38.88 46.8
L39.24 51.3
L39.6 50.4
L39.96 56.7
L40.32 56.7
L40.68 53.1
L41.04 53.1
L41.76 54
L42.12 52.2
L42.48 46.8
L42.84 49.5
L43.2 54
L43.56 52.2
L44.28 52.2
L44.64 55.8
L45 55.8
L45.36 57.6
L45.72 55.8
L46.08 55.8
L46.44 53.1
L46.8 54
L47.52 52.2
L47.88 54
L48.24 57.6
L48.6 55.8
L49.32 55.8
L50.04 48.6
L50.4 49.5
L50.76 49.5
L51.12 43.2
L51.48 43.2
L51.84 50.4
L52.2 54
L52.56 54
L52.92 55.8
L53.28 55.8
L53.64 54.9
L54 54.9
L54.72 50.4
L55.08 52.2
L55.44 53.1
L55.8 52.2
L56.16 52.2
L56.52 53.1
L56.88 52.2
L57.24 50.4
L57.6 54
L58.32 55.8
L58.68 48.6
L59.04 50.4
L59.76 46.8
L60.12 47.7
L60.84 45.9
L61.2 43.2
L61.92 43.2
L62.28 39.6
L62.64 41.4
L63 42.3
L63.36 40.5
L63.72 37.8
L64.08 37.8
L64.44 38.7
L64.8 40.5
L65.52 45.9
L65.88 45
L66.24 42.3
L66.6 40.5
L66.96 41.4
L67.68 41.4
L68.04 38.7
L68.4 44.1
L69.12 42.3
L69.48 43.2
L69.84 43.2
L70.2 47.7
L70.56 46.8
L70.92 46.8
L71.28 45
L71.64 45
L72 40.5
L72.36 34.2
L72.72 36.9
L73.08 40.5
L73.44 37.8
L73.8 38.7
L74.16 37.8
L74.52 36
L74.88 39.6
L75.24 40.5
L75.6 36.9
L76.68 34.2
L77.04 38.7
L77.4 36.9
L77.76 36
L78.12 36.9
L78.84 31.5
L79.2 27.9
L79.56 27.9
L79.92 34.2
L80.28 33.3
L80.64 36
L81.36 26.1
L81.72 25.2
L82.08 25.2
L82.8 34.2
L83.16 36.9
L83.52 36
L83.88 40.5
L84.24 40.5
L84.6 31.5
L84.96 35.1
L85.32 33.3
L85.68 34.2
L86.04 33.3
L86.4 36
L86.76 35.1
L87.12 32.4
L87.48 32.4
L87.84 33.3
L88.2 30.6
L88.56 30.6
L88.92 37.8
L89.64 36
L90 34.2
L90.36 31.5
L90.72 29.7
L91.08 30.6
L91.44 27.9
L91.8 27.9
L92.16 28.8
L92.52 26.1
L92.88 28.8
L93.24 27.9
L93.6 33.3
L93.96 28.8
L94.32 27.9
L95.04 21.6
L95.4 22.5
L96.12 20.7
L96.48 20.7
L96.84 18.9
L97.92 18.9
L98.28 16.2
L98.64 15.3
L99 17.1
L99.72 15.3
L100.08 15.3
L100.44 13.5
L100.8 12.6
L101.16 12.6
L101.52 10.8
L101.88 9.9
L102.24 12.6
L102.6 8.1
L102.96 7.2
L103.68 10.8
L104.04 9.9
L104.76 9.9
L105.12 10.8
L105.48 15.3
L105.84 13.5
L106.2 16.2
L106.56 12.6
L107.28 10.8
L107.64 12.6
L108 10.8
L108.36 23.4
L108.72 26.1
L109.08 33.3
L109.44 31.5
L109.8 33.3
L110.16 33.3
L110.52 37.8
L110.88 44.1
L111.24 41.4
L111.6 43.2
L111.96 43.2
L112.32 38.7
L112.68 41.4
L113.04 41.4
L113.4 45.9
L113.76 45
L114.12 45
L114.48 41.4
L114.84 42.3
L115.2 46.8
L115.56 45
L115.92 47.7
L116.64 45.9
L117 49.5
L117.36 49.5
L117.72 46.8
L118.08 47.7
L118.44 45.9
L118.8 46.8
L119.16 45.9
L119.52 45.9
L119.88 43.2
L120.24 43.2
L120.6 45
L120.96 45
L121.32 43.2
L121.68 39.6
L122.04 37.8
L122.4 38.7
L122.76 40.5
L123.12 41.4
L123.84 37.8
L124.2 37.8
L124.56 38.7
L124.92 37.8
L125.64 37.8
L126 39.6
L126.36 43.2
L126.72 42.3
L127.08 42.3
L127.8 43.2
L128.16 39.6
L128.52 38.7
L128.88 41.4
L129.24 42.3
L129.6 42.3
L129.96 40.5
L130.32 39.6
L131.04 45
L131.4 44.1
L132.12 44.1
L132.84 42.3
L133.2 44.1
L133.56 43.2
L133.92 41.4
L134.28 42.3
L134.64 42.3
L135 37.8
L135.36 39.6
L135.72 36.9
L136.08 42.3
L136.44 36.9
L136.8 38.7
L137.52 35.1
L137.88 35.1
L138.24 36
L138.6 36
L138.96 36.9
L139.68 36.9
L140.04 35.1
L140.4 37.8
L140.76 38.7
L141.12 37.8
L141.48 39.6
L141.84 40.5
L142.2 42.3
L142.56 40.5
L142.92 43.2
L143.28 43.2
L143.64 44.1
L144 44.1
L144 44.1" style="fill:none;stroke:#008000;stroke-linecap:square;"/>
   </g>
   <g id="patch_3">
    <path d="
M0 72
L0 0" style="fill:none;stroke:#ffffff;stroke-linecap:square;stroke-linejoin:miter;"/>
   </g>
   <g id="patch_4">
    <path d="
M144 72
L144 0" style="fill:none;stroke:#ffffff;stroke-linecap:square;stroke-linejoin:miter;"/>
   </g>
   <g id="patch_5">
    <path d="
M0 72
L144 72" style="fill:none;stroke:#ffffff;stroke-linecap:square;stroke-linejoin:miter;"/>
   </g>
   <g id="patch_6">
    <path d="
M0 0
L144 0" style="fill:none;stroke:#ffffff;stroke-linecap:square;stroke-linejoin:miter;"/>
   </g>
   <g id="text_1">
    <!-- Pull requests -->
    <defs>
     <path d="
M8.5 21.5781
L8.5 54.6875
L17.4844 54.6875
L17.4844 21.9219
Q17.4844 14.1562 20.5 10.2656
Q23.5312 6.39062 29.5938 6.39062
Q36.8594 6.39062 41.0781 11.0312
Q45.3125 15.6719 45.3125 23.6875
L45.3125 54.6875
L54.2969 54.6875
L54.2969 0
L45.3125 0
L45.3125 8.40625
Q42.0469 3.42188 37.7188 1
Q33.4062 -1.42188 27.6875 -1.42188
Q18.2656 -1.42188 13.375 4.4375
Q8.5 10.2969 8.5 21.5781" id="BitstreamVeraSans-Roman-75"/>
     <path d="
M18.3125 70.2188
L18.3125 54.6875
L36.8125 54.6875
L36.8125 47.7031
L18.3125 47.7031
L18.3125 18.0156
Q18.3125 11.3281 20.1406 9.42188
Q21.9688 7.51562 27.5938 7.51562
L36.8125 7.51562
L36.8125 0
L27.5938 0
Q17.1875 0 13.2344 3.875
Q9.28125 7.76562 9.28125 18.0156
L9.28125 47.7031
L2.6875 47.7031
L2.6875 54.6875
L9.28125 54.6875
L9.28125 70.2188
z
" id="BitstreamVeraSans-Roman-74"/>
     <path d="
M14.7969 27.2969
Q14.7969 17.3906 18.875 11.75
Q22.9531 6.10938 30.0781 6.10938
Q37.2031 6.10938 41.2969 11.75
Q45.4062 17.3906 45.4062 27.2969
Q45.4062 37.2031 41.2969 42.8438
Q37.2031 48.4844 30.0781 48.4844
Q22.9531 48.4844 18.875 42.8438
Q14.7969 37.2031 14.7969 27.2969
M45.4062 8.20312
Q42.5781 3.32812 38.25 0.953125
Q33.9375 -1.42188 27.875 -1.42188
Q17.9688 -1.42188 11.7344 6.48438
Q5.51562 14.4062 5.51562 27.2969
Q5.51562 40.1875 11.7344 48.0938
Q17.9688 56 27.875 56
Q33.9375 56 38.25 53.625
Q42.5781 51.2656 45.4062 46.3906
L45.4062 54.6875
L54.3906 54.6875
L54.3906 -20.7969
L45.4062 -20.7969
z
" id="BitstreamVeraSans-Roman-71"/>
     <path d="
M56.2031 29.5938
L56.2031 25.2031
L14.8906 25.2031
Q15.4844 15.9219 20.4844 11.0625
Q25.4844 6.20312 34.4219 6.20312
Q39.5938 6.20312 44.4531 7.46875
Q49.3125 8.73438 54.1094 11.2812
L54.1094 2.78125
Q49.2656 0.734375 44.1875 -0.34375
Q39.1094 -1.42188 33.8906 -1.42188
Q20.7969 -1.42188 13.1562 6.1875
Q5.51562 13.8125 5.51562 26.8125
Q5.51562 40.2344 12.7656 48.1094
Q20.0156 56 32.3281 56
Q43.3594 56 49.7812 48.8906
Q56.2031 41.7969 56.2031 29.5938
M47.2188 32.2344
Q47.125 39.5938 43.0938 43.9844
Q39.0625 48.3906 32.4219 48.3906
Q24.9062 48.3906 20.3906 44.1406
Q15.875 39.8906 15.1875 32.1719
z
" id="BitstreamVeraSans-Roman-65"/>
     <path id="BitstreamVeraSans-Roman-20"/>
     <path d="
M19.6719 64.7969
L19.6719 37.4062
L32.0781 37.4062
Q38.9688 37.4062 42.7188 40.9688
Q46.4844 44.5312 46.4844 51.125
Q46.4844 57.6719 42.7188 61.2344
Q38.9688 64.7969 32.0781 64.7969
z

M9.8125 72.9062
L32.0781 72.9062
Q44.3438 72.9062 50.6094 67.3594
Q56.8906 61.8125 56.8906 51.125
Q56.8906 40.3281 50.6094 34.8125
Q44.3438 29.2969 32.0781 29.2969
L19.6719 29.2969
L19.6719 0
L9.8125 0
z
" id="BitstreamVeraSans-Roman-50"/>
     <path d="
M44.2812 53.0781
L44.2812 44.5781
Q40.4844 46.5312 36.375 47.5
Q32.2812 48.4844 27.875 48.4844
Q21.1875 48.4844 17.8438 46.4375
Q14.5 44.3906 14.5 40.2812
Q14.5 37.1562 16.8906 35.375
Q19.2812 33.5938 26.5156 31.9844
L29.5938 31.2969
Q39.1562 29.25 43.1875 25.5156
Q47.2188 21.7812 47.2188 15.0938
Q47.2188 7.46875 41.1875 3.01562
Q35.1562 -1.42188 24.6094 -1.42188
Q20.2188 -1.42188 15.4531 -0.5625
Q10.6875 0.296875 5.42188 2
L5.42188 11.2812
Q10.4062 8.6875 15.2344 7.39062
Q20.0625 6.10938 24.8125 6.10938
Q31.1562 6.10938 34.5625 8.28125
Q37.9844 10.4531 37.9844 14.4062
Q37.9844 18.0625 35.5156 20.0156
Q33.0625 21.9688 24.7031 23.7812
L21.5781 24.5156
Q13.2344 26.2656 9.51562 29.9062
Q5.8125 33.5469 5.8125 39.8906
Q5.8125 47.6094 11.2812 51.7969
Q16.75 56 26.8125 56
Q31.7812 56 36.1719 55.2656
Q40.5781 54.5469 44.2812 53.0781" id="BitstreamVeraSans-Roman-73"/>
     <path d="
M9.42188 75.9844
L18.4062 75.9844
L18.4062 0
L9.42188 0
z
" id="BitstreamVeraSans-Roman-6c"/>
     <path d="
M41.1094 46.2969
Q39.5938 47.1719 37.8125 47.5781
Q36.0312 48 33.8906 48
Q26.2656 48 22.1875 43.0469
Q18.1094 38.0938 18.1094 28.8125
L18.1094 0
L9.07812 0
L9.07812 54.6875
L18.1094 54.6875
L18.1094 46.1875
Q20.9531 51.1719 25.4844 53.5781
Q30.0312 56 36.5312 56
Q37.4531 56 38.5781 55.875
Q39.7031 55.7656 41.0625 55.5156
z
" id="BitstreamVeraSans-Roman-72"/>
    </defs>
    <g transform="translate(0.0 12.1575)scale(0.16 -0.16)">
     <use xlink:href="#BitstreamVeraSans-Roman-50"/>
     <use x="58.552734375" xlink:href="#BitstreamVeraSans-Roman-75"/>
     <use x="121.931640625" xlink:href="#BitstreamVeraSans-Roman-6c"/>
     <use x="149.71484375" xlink:href="#BitstreamVeraSans-Roman-6c"/>
     <use x="177.498046875" xlink:href="#BitstreamVeraSans-Roman-20"/>
     <use x="209.28515625" xlink:href="#BitstreamVeraSans-Roman-72"/>
     <use x="248.1484375" xlink:href="#BitstreamVeraSans-Roman-65"/>
     <use x="309.671875" xlink:href="#BitstreamVeraSans-Roman-71"/>
     <use x="373.1484375" xlink:href="#BitstreamVeraSans-Roman-75"/>
     <use x="436.52734375" xlink:href="#BitstreamVeraSans-Roman-65"/>
     <use x="498.05078125" xlink:href="#BitstreamVeraSans-Roman-73"/>
     <use x="550.150390625" xlink:href="#BitstreamVeraSans-Roman-74"/>
     <use x="589.359375" xlink:href="#BitstreamVeraSans-Roman-73"/>
    </g>
   </g>
  </g>
 </g>
 <defs>
  <clipPath id="p5d99cb97b2">
   <rect height="72.0" width="144.0" x="0.0" y="0.0"/>
  </clipPath>
 </defs>
</svg>
