<?xml version="1.0" encoding="utf-8" standalone="no"?>
<!DOCTYPE svg PUBLIC "-//W3C//DTD SVG 1.1//EN"
  "http://www.w3.org/Graphics/SVG/1.1/DTD/svg11.dtd">
<!-- Created with matplotlib (http://matplotlib.org/) -->
<svg height="72pt" version="1.1" viewBox="0 0 144 72" width="144pt" xmlns="http://www.w3.org/2000/svg" xmlns:xlink="http://www.w3.org/1999/xlink">
 <defs>
  <style type="text/css">
*{stroke-linecap:butt;stroke-linejoin:round;}
  </style>
 </defs>
 <g id="figure_1">
  <g id="patch_1">
   <path d="
M0 72
L144 72
L144 0
L0 0
z
" style="fill:#ffffff;"/>
  </g>
  <g id="axes_1">
   <g id="patch_2">
    <path d="
M0 72
L144 72
L144 0
L0 0
z
" style="fill:#e5e5e5;"/>
   </g>
   <g id="matplotlib.axis_1"/>
   <g id="matplotlib.axis_2"/>
   <g id="line2d_1">
    <path clip-path="url(#p5d99cb97b2)" d="
M0 70.74
L0.43769 70.56
L0.87538 70.02
L1.31307 70.02
L1.75076 70.2
L2.18845 69.48
L3.50152 69.48
L3.93921 69.3
L4.3769 68.94
L4.81459 69.12
L5.68997 67.5
L6.12766 67.5
L6.56535 68.58
L7.00304 68.04
L7.44073 67.86
L7.87842 67.32
L8.31611 67.14
L8.7538 65.34
L9.19149 65.16
L9.62918 65.52
L11.3799 65.52
L11.8176 62.46
L12.2553 61.92
L12.693 61.02
L13.1307 61.2
L14.0061 61.2
L14.4438 60.84
L14.8815 60.84
L15.3191 59.94
L15.7568 59.76
L16.1945 59.76
L17.0699 59.4
L17.5076 59.4
L17.9453 58.32
L20.5714 58.32
L21.0091 55.98
L21.4468 56.16
L21.8845 58.5
L22.3222 58.86
L23.1976 58.86
L23.6353 58.14
L24.0729 57.96
L24.5106 58.32
L24.9483 58.32
L25.386 56.88
L26.2614 56.88
L26.6991 54.72
L27.1368 54.36
L27.5745 54.18
L28.0122 54.72
L28.4498 54.72
L28.8875 54.36
L29.7629 54.36
L30.2006 53.1
L30.6383 52.74
L31.076 52.2
L31.5137 51.12
L31.9514 51.12
L32.3891 52.02
L33.2644 51.3
L34.1398 51.3
L34.5775 50.94
L35.4529 50.94
L35.8906 50.76
L36.3283 50.04
L36.766 49.86
L37.2036 50.22
L37.6413 50.76
L38.079 50.76
L38.5167 50.04
L38.9544 49.86
L39.3921 49.86
L39.8298 49.32
L40.2675 48.6
L40.7052 48.24
L41.1429 50.04
L41.5805 49.86
L42.0182 50.22
L42.4559 50.22
L42.8936 50.04
L43.3313 49.5
L43.769 49.32
L45.0821 49.32
L45.5198 47.7
L46.3951 47.7
L46.8328 45.72
L47.7082 45.72
L48.1459 46.08
L48.5836 45.18
L49.0213 45.36
L49.459 44.64
L49.8967 44.28
L50.772 44.1
L51.6474 43.74
L52.0851 44.1
L52.5228 44.28
L52.9605 43.74
L53.3982 43.74
L53.8359 43.38
L54.2736 43.2
L54.7112 43.56
L55.1489 43.74
L55.5866 43.74
L56.0243 43.02
L56.462 43.02
L57.7751 40.68
L58.2128 41.4
L58.6505 40.86
L59.0881 40.86
L59.5258 39.78
L59.9635 39.06
L60.4012 39.24
L60.8389 38.88
L61.2766 38.16
L61.7143 37.98
L62.152 39.24
L62.5897 39.42
L63.0274 39.42
L63.465 38.88
L63.9027 38.52
L64.3404 38.52
L65.2158 37.08
L65.6535 37.08
L66.0912 36.9
L66.5289 38.52
L66.9666 38.88
L68.7173 38.88
L69.5927 36.72
L70.0304 36.54
L70.4681 36.18
L71.3435 36.9
L71.7812 36.9
L72.2188 36.54
L72.6565 36.54
L73.0942 35.46
L73.5319 35.28
L74.4073 33.12
L74.845 33.12
L75.2827 32.76
L75.7204 32.58
L76.1581 32.04
L76.5957 31.68
L77.0334 32.4
L77.4711 32.76
L77.9088 32.94
L78.3465 32.94
L78.7842 32.04
L79.2219 31.86
L80.9726 31.86
L81.4103 30.42
L81.848 30.42
L82.2857 29.16
L82.7234 29.16
L83.1611 30.06
L83.5988 29.34
L84.4742 29.34
L84.9119 28.62
L85.3495 28.62
L86.2249 27.54
L87.9757 27.54
L88.4134 25.2
L88.8511 26.28
L89.2888 26.1
L91.0395 26.1
L91.4772 25.38
L93.228 25.38
L93.6657 24.48
L94.1033 24.12
L94.9787 23.76
L96.2918 23.76
L96.7295 23.22
L97.1672 22.5
L97.6049 23.4
L98.0426 23.4
L98.4802 22.68
L98.9179 22.5
L99.3556 22.5
L99.7933 21.6
L100.231 21.6
L100.669 20.7
L101.106 20.34
L101.544 19.26
L101.982 18.9
L102.857 18.9
L103.733 20.88
L104.17 22.5
L104.608 22.14
L105.046 22.32
L105.483 22.32
L105.921 21.78
L106.359 21.78
L106.796 22.14
L107.234 21.78
L108.985 21.78
L109.422 20.88
L109.86 20.52
L110.298 21.42
L110.736 23.04
L111.611 22.32
L112.049 22.32
L112.486 21.42
L112.924 21.42
L113.799 20.7
L114.237 20.52
L114.675 20.16
L115.112 19.62
L115.55 21.42
L115.988 21.6
L116.426 20.88
L116.863 20.88
L117.301 19.44
L117.739 19.26
L118.614 19.26
L119.052 18.9
L119.489 18.9
L119.927 18.18
L120.365 17.82
L121.24 17.82
L121.678 17.46
L122.116 17.28
L122.553 16.74
L123.429 16.74
L124.304 16.02
L124.742 16.02
L125.179 15.3
L125.617 15.3
L126.055 14.76
L126.492 14.76
L126.93 13.68
L127.368 13.32
L128.243 13.32
L128.681 12.96
L129.119 12.06
L129.556 11.88
L130.432 11.88
L130.869 11.16
L132.182 11.16
L132.62 10.44
L133.058 10.08
L133.495 10.08
L133.933 9.9
L134.371 10.08
L134.809 10.08
L135.246 9.9
L135.684 9.36
L136.122 9.36
L136.559 8.46
L137.435 8.82
L137.872 8.82
L138.31 8.1
L138.748 10.98
L139.185 10.98
L139.623 10.44
L140.061 13.5
L140.498 14.58
L140.936 14.58
L141.374 15.12
L141.812 16.92
L142.249 16.92
L142.687 17.64
L143.125 18.9
L143.562 18.54
L144 18.72
L144 18.72" style="fill:none;stroke:#ff0000;stroke-linecap:square;"/>
   </g>
   <g id="patch_3">
    <path d="
M0 72
L0 0" style="fill:none;stroke:#ffffff;stroke-linecap:square;stroke-linejoin:miter;"/>
   </g>
   <g id="patch_4">
    <path d="
M144 72
L144 0" style="fill:none;stroke:#ffffff;stroke-linecap:square;stroke-linejoin:miter;"/>
   </g>
   <g id="patch_5">
    <path d="
M0 72
L144 72" style="fill:none;stroke:#ffffff;stroke-linecap:square;stroke-linejoin:miter;"/>
   </g>
   <g id="patch_6">
    <path d="
M0 0
L144 0" style="fill:none;stroke:#ffffff;stroke-linecap:square;stroke-linejoin:miter;"/>
   </g>
   <g id="text_1">
    <!-- Issues -->
    <defs>
     <path d="
M8.5 21.5781
L8.5 54.6875
L17.4844 54.6875
L17.4844 21.9219
Q17.4844 14.1562 20.5 10.2656
Q23.5312 6.39062 29.5938 6.39062
Q36.8594 6.39062 41.0781 11.0312
Q45.3125 15.6719 45.3125 23.6875
L45.3125 54.6875
L54.2969 54.6875
L54.2969 0
L45.3125 0
L45.3125 8.40625
Q42.0469 3.42188 37.7188 1
Q33.4062 -1.42188 27.6875 -1.42188
Q18.2656 -1.42188 13.375 4.4375
Q8.5 10.2969 8.5 21.5781" id="BitstreamVeraSans-Roman-75"/>
     <path d="
M9.8125 72.9062
L19.6719 72.9062
L19.6719 0
L9.8125 0
z
" id="BitstreamVeraSans-Roman-49"/>
     <path d="
M56.2031 29.5938
L56.2031 25.2031
L14.8906 25.2031
Q15.4844 15.9219 20.4844 11.0625
Q25.4844 6.20312 34.4219 6.20312
Q39.5938 6.20312 44.4531 7.46875
Q49.3125 8.73438 54.1094 11.2812
L54.1094 2.78125
Q49.2656 0.734375 44.1875 -0.34375
Q39.1094 -1.42188 33.8906 -1.42188
Q20.7969 -1.42188 13.1562 6.1875
Q5.51562 13.8125 5.51562 26.8125
Q5.51562 40.2344 12.7656 48.1094
Q20.0156 56 32.3281 56
Q43.3594 56 49.7812 48.8906
Q56.2031 41.7969 56.2031 29.5938
M47.2188 32.2344
Q47.125 39.5938 43.0938 43.9844
Q39.0625 48.3906 32.4219 48.3906
Q24.9062 48.3906 20.3906 44.1406
Q15.875 39.8906 15.1875 32.1719
z
" id="BitstreamVeraSans-Roman-65"/>
     <path d="
M44.2812 53.0781
L44.2812 44.5781
Q40.4844 46.5312 36.375 47.5
Q32.2812 48.4844 27.875 48.4844
Q21.1875 48.4844 17.8438 46.4375
Q14.5 44.3906 14.5 40.2812
Q14.5 37.1562 16.8906 35.375
Q19.2812 33.5938 26.5156 31.9844
L29.5938 31.2969
Q39.1562 29.25 43.1875 25.5156
Q47.2188 21.7812 47.2188 15.0938
Q47.2188 7.46875 41.1875 3.01562
Q35.1562 -1.42188 24.6094 -1.42188
Q20.2188 -1.42188 15.4531 -0.5625
Q10.6875 0.296875 5.42188 2
L5.42188 11.2812
Q10.4062 8.6875 15.2344 7.39062
Q20.0625 6.10938 24.8125 6.10938
Q31.1562 6.10938 34.5625 8.28125
Q37.9844 10.4531 37.9844 14.4062
Q37.9844 18.0625 35.5156 20.0156
Q33.0625 21.9688 24.7031 23.7812
L21.5781 24.5156
Q13.2344 26.2656 9.51562 29.9062
Q5.8125 33.5469 5.8125 39.8906
Q5.8125 47.6094 11.2812 51.7969
Q16.75 56 26.8125 56
Q31.7812 56 36.1719 55.2656
Q40.5781 54.5469 44.2812 53.0781" id="BitstreamVeraSans-Roman-73"/>
    </defs>
    <g transform="translate(0.0 12.1575)scale(0.16 -0.16)">
     <use xlink:href="#BitstreamVeraSans-Roman-49"/>
     <use x="29.4921875" xlink:href="#BitstreamVeraSans-Roman-73"/>
     <use x="81.591796875" xlink:href="#BitstreamVeraSans-Roman-73"/>
     <use x="133.69140625" xlink:href="#BitstreamVeraSans-Roman-75"/>
     <use x="197.0703125" xlink:href="#BitstreamVeraSans-Roman-65"/>
     <use x="258.59375" xlink:href="#BitstreamVeraSans-Roman-73"/>
    </g>
   </g>
  </g>
 </g>
 <defs>
  <clipPath id="p5d99cb97b2">
   <rect height="72.0" width="144.0" x="0.0" y="0.0"/>
  </clipPath>
 </defs>
</svg>
